<svg width="706" height="174" viewBox="0 0 706 174" fill="none" xmlns="http://www.w3.org/2000/svg">
<g filter="url(#filter0_d_211_7)">
<path d="M201.016 134H182.945L183.086 116.984H201.016C205.984 116.984 209.852 116.094 212.617 114.312C215.383 112.531 217.328 109.719 218.453 105.875C219.625 102.031 220.211 96.9922 220.211 90.7578V74.7969C220.211 70.0625 219.906 66.0547 219.297 62.7734C218.688 59.4453 217.656 56.7734 216.203 54.7578C214.75 52.6953 212.805 51.1719 210.367 50.1875C207.93 49.2031 204.906 48.7109 201.297 48.7109H182.594V31.625H201.297C207.203 31.625 212.57 32.5859 217.398 34.5078C222.227 36.4297 226.375 39.2422 229.844 42.9453C233.312 46.6016 235.984 51.125 237.859 56.5156C239.734 61.9063 240.672 68.0469 240.672 74.9375V90.7578C240.672 97.6953 239.734 103.836 237.859 109.18C235.984 114.523 233.312 119.047 229.844 122.75C226.422 126.406 222.273 129.195 217.398 131.117C212.523 133.039 207.062 134 201.016 134ZM194.898 31.625V134H174.297V31.625H194.898ZM291.508 115.719V57.9219H311.266V134H292.703L291.508 115.719ZM293.758 100.039L299.242 99.8984C299.242 105.008 298.75 109.742 297.766 114.102C296.781 118.414 295.305 122.164 293.336 125.352C291.367 128.539 288.906 131.023 285.953 132.805C283 134.539 279.508 135.406 275.477 135.406C272.383 135.406 269.523 134.891 266.898 133.859C264.32 132.781 262.094 131.117 260.219 128.867C258.344 126.57 256.867 123.641 255.789 120.078C254.758 116.469 254.242 112.133 254.242 107.07V57.9219H274V107.281C274 109.344 274.188 111.125 274.562 112.625C274.938 114.078 275.453 115.273 276.109 116.211C276.766 117.148 277.539 117.828 278.43 118.25C279.32 118.625 280.328 118.812 281.453 118.812C284.547 118.812 286.984 118.016 288.766 116.422C290.594 114.781 291.883 112.555 292.633 109.742C293.383 106.883 293.758 103.648 293.758 100.039ZM353.102 119.023C354.93 119.023 356.5 118.648 357.812 117.898C359.172 117.148 360.203 115.93 360.906 114.242C361.609 112.555 361.984 110.375 362.031 107.703H380.523C380.523 113.422 379.305 118.367 376.867 122.539C374.477 126.664 371.242 129.852 367.164 132.102C363.133 134.305 358.562 135.406 353.453 135.406C348.344 135.406 343.891 134.586 340.094 132.945C336.297 131.305 333.156 128.914 330.672 125.773C328.234 122.633 326.383 118.812 325.117 114.312C323.898 109.766 323.289 104.562 323.289 98.7031V93.1484C323.289 87.3828 323.898 82.2266 325.117 77.6797C326.383 73.1328 328.234 69.2891 330.672 66.1484C333.156 63.0078 336.273 60.6172 340.023 58.9766C343.82 57.3359 348.273 56.5156 353.383 56.5156C358.867 56.5156 363.625 57.6641 367.656 59.9609C371.688 62.2109 374.828 65.5391 377.078 69.9453C379.375 74.3516 380.523 79.7891 380.523 86.2578H362.031C361.984 83.3516 361.633 80.9375 360.977 79.0156C360.367 77.0469 359.406 75.5469 358.094 74.5156C356.828 73.4375 355.141 72.8984 353.031 72.8984C350.828 72.8984 349.047 73.3672 347.688 74.3047C346.375 75.1953 345.367 76.5078 344.664 78.2422C344.008 79.9297 343.562 82.0391 343.328 84.5703C343.094 87.1016 342.977 89.9609 342.977 93.1484V98.7031C342.977 102.125 343.07 105.102 343.258 107.633C343.492 110.117 343.938 112.227 344.594 113.961C345.297 115.648 346.305 116.914 347.617 117.758C348.977 118.602 350.805 119.023 353.102 119.023ZM411.531 25.9297V134H391.844V25.9297H411.531ZM451.539 57.9219L424.75 95.75L408.648 113.82L401.688 98.8438L414.062 80.7734L428.055 57.9219H451.539ZM431.008 134L414.414 99.0547L427.984 86.5391L453.578 134H431.008ZM494.5 113.469C494.5 112.156 494.055 110.984 493.164 109.953C492.273 108.922 490.867 107.867 488.945 106.789C487.023 105.664 484.469 104.422 481.281 103.062C477.812 101.656 474.742 100.203 472.07 98.7031C469.398 97.2031 467.125 95.5391 465.25 93.7109C463.422 91.8828 462.039 89.7969 461.102 87.4531C460.164 85.1094 459.695 82.4375 459.695 79.4375C459.695 76.2031 460.281 73.2266 461.453 70.5078C462.672 67.7422 464.406 65.3281 466.656 63.2656C468.906 61.1562 471.648 59.5156 474.883 58.3438C478.164 57.125 481.844 56.5156 485.922 56.5156C491.641 56.5156 496.539 57.5234 500.617 59.5391C504.742 61.5078 507.906 64.2734 510.109 67.8359C512.312 71.3984 513.414 75.5469 513.414 80.2812H493.727C493.727 78.5938 493.469 77.0938 492.953 75.7812C492.438 74.4219 491.594 73.3672 490.422 72.6172C489.297 71.8672 487.773 71.4922 485.852 71.4922C484.445 71.4922 483.18 71.7969 482.055 72.4062C480.977 73.0156 480.109 73.8359 479.453 74.8672C478.844 75.8516 478.539 77.0234 478.539 78.3828C478.539 79.4141 478.75 80.3281 479.172 81.125C479.641 81.9219 480.367 82.6953 481.352 83.4453C482.336 84.1953 483.648 84.9922 485.289 85.8359C486.977 86.6328 489.039 87.5234 491.477 88.5078C496.539 90.3828 500.688 92.3984 503.922 94.5547C507.203 96.7109 509.641 99.2422 511.234 102.148C512.828 105.008 513.625 108.547 513.625 112.766C513.625 116.141 512.969 119.211 511.656 121.977C510.391 124.742 508.539 127.133 506.102 129.148C503.664 131.164 500.734 132.711 497.312 133.789C493.938 134.867 490.164 135.406 485.992 135.406C479.852 135.406 474.672 134.188 470.453 131.75C466.234 129.312 463.047 126.195 460.891 122.398C458.734 118.555 457.656 114.57 457.656 110.445H476.359C476.453 112.977 476.922 114.969 477.766 116.422C478.656 117.828 479.852 118.812 481.352 119.375C482.852 119.938 484.516 120.219 486.344 120.219C488.172 120.219 489.672 119.984 490.844 119.516C492.062 119 492.977 118.227 493.586 117.195C494.195 116.117 494.5 114.875 494.5 113.469Z" fill="#F9A233"/>
</g>
<g filter="url(#filter1_d_211_7)">
<path d="M558.977 32.625V135H546.039V32.625H558.977ZM593.5 78.6797V89.7891H556.516V78.6797H593.5ZM599.336 32.625V43.7344H556.516V32.625H599.336ZM627.039 27V135H614.664V27H627.039ZM664.375 127.125L681.32 58.9219H694.539L669.438 146.742C668.828 148.617 668.008 150.633 666.977 152.789C665.992 154.992 664.727 157.078 663.18 159.047C661.633 161.016 659.781 162.609 657.625 163.828C655.469 165.094 652.938 165.727 650.031 165.727C649.141 165.727 647.992 165.586 646.586 165.305C645.227 165.023 644.242 164.789 643.633 164.602V154.055C643.914 154.102 644.359 154.148 644.969 154.195C645.578 154.289 646.023 154.336 646.305 154.336C648.742 154.336 650.805 153.938 652.492 153.141C654.227 152.391 655.703 151.102 656.922 149.273C658.141 147.492 659.172 145.031 660.016 141.891L664.375 127.125ZM653.406 58.9219L668.523 117.984L671.758 131.695L662.898 136.477L639.836 58.9219H653.406Z" fill="#05AD9E"/>
</g>
<circle cx="71" cy="81" r="69" fill="#E0DFE1"/>
<path d="M39.8055 39.1852C44.3067 39.1852 50.1214 41.0653 55.5378 44.4955C60.9335 47.9126 65.4583 52.5682 67.7398 57.6152C70.2895 63.2553 75.1541 67.3184 80.8125 70.1866C86.4835 73.0612 93.2553 74.8968 100.185 75.9453C101.367 76.1241 102.163 76.3331 102.676 76.5193C102.341 77.1954 101.717 78.1408 100.683 79.4061C100.636 79.4635 100.588 79.5219 100.54 79.5812C99.9971 80.2464 99.3645 81.0216 98.7012 81.6689C98.4787 81.8861 98.2965 82.0445 98.1575 82.1543L47.4708 81.8118L4.5659 81.1009C4.57641 76.0676 5.65828 70.3112 7.54699 64.8626C9.69566 58.6639 12.7449 53.2759 15.9934 49.9683C23.3521 42.4759 30.2406 39.1852 39.8055 39.1852ZM102.932 75.8563C102.932 75.8563 102.932 75.8582 102.931 75.8622C102.932 75.8584 102.932 75.8564 102.932 75.8563ZM97.8904 82.3379C97.8907 82.3369 97.9039 82.329 97.9293 82.317C97.9029 82.3329 97.8902 82.3389 97.8904 82.3379Z" fill="url(#paint0_linear_211_7)"/>
<path d="M39.8055 39.1852C44.3067 39.1852 50.1214 41.0653 55.5378 44.4955C60.9335 47.9126 65.4583 52.5682 67.7398 57.6152C70.2895 63.2553 75.1541 67.3184 80.8125 70.1866C86.4835 73.0612 93.2553 74.8968 100.185 75.9453C101.367 76.1241 102.163 76.3331 102.676 76.5193C102.341 77.1954 101.717 78.1408 100.683 79.4061C100.636 79.4635 100.588 79.5219 100.54 79.5812C99.9971 80.2464 99.3645 81.0216 98.7012 81.6689C98.4787 81.8861 98.2965 82.0445 98.1575 82.1543L47.4708 81.8118L4.5659 81.1009C4.57641 76.0676 5.65828 70.3112 7.54699 64.8626C9.69566 58.6639 12.7449 53.2759 15.9934 49.9683C23.3521 42.4759 30.2406 39.1852 39.8055 39.1852ZM102.932 75.8563C102.932 75.8563 102.932 75.8582 102.931 75.8622C102.932 75.8584 102.932 75.8564 102.932 75.8563ZM97.8904 82.3379C97.8907 82.3369 97.9039 82.329 97.9293 82.317C97.9029 82.3329 97.8902 82.3389 97.8904 82.3379Z" fill="#F9A233" fill-opacity="0.2"/>
<path d="M39.8055 39.1852C44.3067 39.1852 50.1214 41.0653 55.5378 44.4955C60.9335 47.9126 65.4583 52.5682 67.7398 57.6152C70.2895 63.2553 75.1541 67.3184 80.8125 70.1866C86.4835 73.0612 93.2553 74.8968 100.185 75.9453C101.367 76.1241 102.163 76.3331 102.676 76.5193C102.341 77.1954 101.717 78.1408 100.683 79.4061C100.636 79.4635 100.588 79.5219 100.54 79.5812C99.9971 80.2464 99.3645 81.0216 98.7012 81.6689C98.4787 81.8861 98.2965 82.0445 98.1575 82.1543L47.4708 81.8118L4.5659 81.1009C4.57641 76.0676 5.65828 70.3112 7.54699 64.8626C9.69566 58.6639 12.7449 53.2759 15.9934 49.9683C23.3521 42.4759 30.2406 39.1852 39.8055 39.1852ZM102.932 75.8563C102.932 75.8563 102.932 75.8582 102.931 75.8622C102.932 75.8584 102.932 75.8564 102.932 75.8563ZM97.8904 82.3379C97.8907 82.3369 97.9039 82.329 97.9293 82.317C97.9029 82.3329 97.8902 82.3389 97.8904 82.3379Z" stroke="black" stroke-width="8"/>
<path d="M72.7812 64.3453C63.5061 64.3453 59.0639 68.9602 59.1899 80.2569" stroke="black" stroke-width="8" stroke-linecap="round"/>
<path d="M70.0506 85.7876H134.807C133.619 101.184 126.973 115.717 115.977 126.714C103.796 138.894 87.2763 145.737 70.0506 145.737C52.5548 145.737 32.3904 138.719 20.3852 126.714C9.24513 115.574 3.46809 101.008 5.35309 85.7876H70.0506Z" fill="url(#paint1_linear_211_7)"/>
<path d="M70.0506 85.7876H134.807C133.619 101.184 126.973 115.717 115.977 126.714C103.796 138.894 87.2763 145.737 70.0506 145.737C52.5548 145.737 32.3904 138.719 20.3852 126.714C9.24513 115.574 3.46809 101.008 5.35309 85.7876H70.0506Z" fill="#F9A233" fill-opacity="0.29"/>
<path d="M70.0506 85.7876H134.807C133.619 101.184 126.973 115.717 115.977 126.714C103.796 138.894 87.2763 145.737 70.0506 145.737C52.5548 145.737 32.3904 138.719 20.3852 126.714C9.24513 115.574 3.46809 101.008 5.35309 85.7876H70.0506Z" stroke="black" stroke-width="10"/>
<path d="M93.0271 143.002C60.1779 139.138 35.8308 113.245 40.4684 85.4198" stroke="black" stroke-width="8" stroke-linecap="round"/>
<path d="M86.8437 119.428H124.717" stroke="black" stroke-width="8" stroke-linecap="round"/>
<path d="M69.0663 102.811H133.219" stroke="black" stroke-width="8" stroke-linecap="round"/>
<path d="M40.0819 96.6272H8.00562" stroke="black" stroke-width="8" stroke-linecap="round"/>
<ellipse rx="1.64873" ry="2.82116" transform="matrix(0.605369 -0.795945 -0.795945 -0.605369 69.9911 72.6002)" fill="url(#paint2_linear_211_7)"/>
<circle r="5.41045" transform="matrix(1 0 0 -1 41.2411 55.6675)" fill="url(#paint3_linear_211_7)"/>
<defs>
<filter id="filter0_d_211_7" x="170.297" y="25.9297" width="347.328" height="117.477" filterUnits="userSpaceOnUse" color-interpolation-filters="sRGB">
<feFlood flood-opacity="0" result="BackgroundImageFix"/>
<feColorMatrix in="SourceAlpha" type="matrix" values="0 0 0 0 0 0 0 0 0 0 0 0 0 0 0 0 0 0 127 0" result="hardAlpha"/>
<feOffset dy="4"/>
<feGaussianBlur stdDeviation="2"/>
<feComposite in2="hardAlpha" operator="out"/>
<feColorMatrix type="matrix" values="0 0 0 0 0 0 0 0 0 0 0 0 0 0 0 0 0 0 0.25 0"/>
<feBlend mode="normal" in2="BackgroundImageFix" result="effect1_dropShadow_211_7"/>
<feBlend mode="normal" in="SourceGraphic" in2="effect1_dropShadow_211_7" result="shape"/>
</filter>
<filter id="filter1_d_211_7" x="542.039" y="27" width="156.5" height="146.727" filterUnits="userSpaceOnUse" color-interpolation-filters="sRGB">
<feFlood flood-opacity="0" result="BackgroundImageFix"/>
<feColorMatrix in="SourceAlpha" type="matrix" values="0 0 0 0 0 0 0 0 0 0 0 0 0 0 0 0 0 0 127 0" result="hardAlpha"/>
<feOffset dy="4"/>
<feGaussianBlur stdDeviation="2"/>
<feComposite in2="hardAlpha" operator="out"/>
<feColorMatrix type="matrix" values="0 0 0 0 0 0 0 0 0 0 0 0 0 0 0 0 0 0 0.25 0"/>
<feBlend mode="normal" in2="BackgroundImageFix" result="effect1_dropShadow_211_7"/>
<feBlend mode="normal" in="SourceGraphic" in2="effect1_dropShadow_211_7" result="shape"/>
</filter>
<linearGradient id="paint0_linear_211_7" x1="53.296" y1="81.947" x2="60.6387" y2="86.198" gradientUnits="userSpaceOnUse">
<stop stop-color="#05AD9E"/>
<stop offset="0.680208" stop-color="#F9A233"/>
<stop offset="0.9999" stop-color="#F9A233"/>
<stop offset="1" stop-color="#F9A233"/>
</linearGradient>
<linearGradient id="paint1_linear_211_7" x1="69.789" y1="80.7876" x2="69.789" y2="150.737" gradientUnits="userSpaceOnUse">
<stop stop-opacity="0.750481"/>
<stop offset="0.310417" stop-color="#FDFDFD"/>
<stop offset="0.586458" stop-color="#F9F9F9" stop-opacity="0.984894"/>
<stop offset="1" stop-opacity="0"/>
</linearGradient>
<linearGradient id="paint2_linear_211_7" x1="1.64873" y1="0" x2="1.64873" y2="5.64231" gradientUnits="userSpaceOnUse">
<stop/>
</linearGradient>
<linearGradient id="paint3_linear_211_7" x1="5.41045" y1="0" x2="5.41045" y2="10.8209" gradientUnits="userSpaceOnUse">
<stop/>
</linearGradient>
</defs>
</svg>
