<svg width="186" height="185" viewBox="0 0 186 185" fill="none" xmlns="http://www.w3.org/2000/svg">
<circle cx="92.5" cy="92.5" r="92.5" fill="#F9A233"/>
<path d="M55.5 37C61.607 37 69.3462 39.533 76.4831 44.0528C83.5993 48.5596 89.6408 54.7416 92.7121 61.5357C95.9137 68.6179 102.102 73.7609 109.436 77.4121C116.785 81.071 125.604 83.3986 134.658 84.7005C136.724 84.9976 138.109 85.4111 138.955 85.8183C139.167 85.9204 139.321 86.0099 139.431 86.0822C139.414 86.1208 139.394 86.1635 139.37 86.2104C139.043 86.8651 138.28 87.8977 136.762 89.2931C136.376 89.6477 135.996 90.023 135.637 90.4178C135.284 90.8066 134.85 91.3359 134.456 91.8179C134.372 91.9193 134.291 92.0187 134.213 92.1142C133.711 92.7244 133.203 93.3295 132.698 93.8721C132.231 94.3745 131.852 94.7286 131.57 94.9473L65.4036 94.5002L8.74432 93.5615C8.58453 86.7043 9.99793 78.7636 12.5635 71.2739C15.3806 63.0497 19.4398 55.7971 23.8538 51.3028C33.5546 41.4256 42.756 37 55.5 37ZM139.677 86.2787C139.677 86.2787 139.675 86.2769 139.672 86.2731C139.676 86.2768 139.677 86.2787 139.677 86.2787ZM139.53 85.8062C139.531 85.7929 139.533 85.7858 139.533 85.7857C139.534 85.7855 139.533 85.7921 139.53 85.8062ZM131.298 95.1318C131.299 95.1303 131.316 95.1195 131.35 95.104C131.315 95.1255 131.298 95.1333 131.298 95.1318Z" fill="url(#paint0_linear_210_4)"/>
<path d="M55.5 37C61.607 37 69.3462 39.533 76.4831 44.0528C83.5993 48.5596 89.6408 54.7416 92.7121 61.5357C95.9137 68.6179 102.102 73.7609 109.436 77.4121C116.785 81.071 125.604 83.3986 134.658 84.7005C136.724 84.9976 138.109 85.4111 138.955 85.8183C139.167 85.9204 139.321 86.0099 139.431 86.0822C139.414 86.1208 139.394 86.1635 139.37 86.2104C139.043 86.8651 138.28 87.8977 136.762 89.2931C136.376 89.6477 135.996 90.023 135.637 90.4178C135.284 90.8066 134.85 91.3359 134.456 91.8179C134.372 91.9193 134.291 92.0187 134.213 92.1142C133.711 92.7244 133.203 93.3295 132.698 93.8721C132.231 94.3745 131.852 94.7286 131.57 94.9473L65.4036 94.5002L8.74432 93.5615C8.58453 86.7043 9.99793 78.7636 12.5635 71.2739C15.3806 63.0497 19.4398 55.7971 23.8538 51.3028C33.5546 41.4256 42.756 37 55.5 37ZM139.677 86.2787C139.677 86.2787 139.675 86.2769 139.672 86.2731C139.676 86.2768 139.677 86.2787 139.677 86.2787ZM139.53 85.8062C139.531 85.7929 139.533 85.7858 139.533 85.7857C139.534 85.7855 139.533 85.7921 139.53 85.8062ZM131.298 95.1318C131.299 95.1303 131.316 95.1195 131.35 95.104C131.315 95.1255 131.298 95.1333 131.298 95.1318Z" fill="#F9A233" fill-opacity="0.2"/>
<path d="M55.5 37C61.607 37 69.3462 39.533 76.4831 44.0528C83.5993 48.5596 89.6408 54.7416 92.7121 61.5357C95.9137 68.6179 102.102 73.7609 109.436 77.4121C116.785 81.071 125.604 83.3986 134.658 84.7005C136.724 84.9976 138.109 85.4111 138.955 85.8183C139.167 85.9204 139.321 86.0099 139.431 86.0822C139.414 86.1208 139.394 86.1635 139.37 86.2104C139.043 86.8651 138.28 87.8977 136.762 89.2931C136.376 89.6477 135.996 90.023 135.637 90.4178C135.284 90.8066 134.85 91.3359 134.456 91.8179C134.372 91.9193 134.291 92.0187 134.213 92.1142C133.711 92.7244 133.203 93.3295 132.698 93.8721C132.231 94.3745 131.852 94.7286 131.57 94.9473L65.4036 94.5002L8.74432 93.5615C8.58453 86.7043 9.99793 78.7636 12.5635 71.2739C15.3806 63.0497 19.4398 55.7971 23.8538 51.3028C33.5546 41.4256 42.756 37 55.5 37ZM139.677 86.2787C139.677 86.2787 139.675 86.2769 139.672 86.2731C139.676 86.2768 139.677 86.2787 139.677 86.2787ZM139.53 85.8062C139.531 85.7929 139.533 85.7858 139.533 85.7857C139.534 85.7855 139.533 85.7921 139.53 85.8062ZM131.298 95.1318C131.299 95.1303 131.316 95.1195 131.35 95.104C131.315 95.1255 131.298 95.1333 131.298 95.1318Z" stroke="black" stroke-width="8"/>
<path d="M98.1638 70.7271C86.1638 70.7271 80.4165 76.6978 80.5795 91.3134" stroke="black" stroke-width="8" stroke-linecap="round"/>
<path d="M94.6309 97H179.985C178.764 117.853 169.94 137.606 155.088 152.458C139.054 168.492 117.307 177.5 94.6309 177.5C71.6847 177.5 45.1947 168.317 29.3355 152.458C14.3371 137.459 6.64333 117.672 9.64118 97H94.6309Z" fill="url(#paint1_linear_210_4)"/>
<path d="M94.6309 97H179.985C178.764 117.853 169.94 137.606 155.088 152.458C139.054 168.492 117.307 177.5 94.6309 177.5C71.6847 177.5 45.1947 168.317 29.3355 152.458C14.3371 137.459 6.64333 117.672 9.64118 97H94.6309Z" fill="#F9A233" fill-opacity="0.29"/>
<path d="M94.6309 97H179.985C178.764 117.853 169.94 137.606 155.088 152.458C139.054 168.492 117.307 177.5 94.6309 177.5C71.6847 177.5 45.1947 168.317 29.3355 152.458C14.3371 137.459 6.64333 117.672 9.64118 97H94.6309Z" stroke="black" stroke-width="10"/>
<path d="M124.358 172.493C81.8577 167.493 50.3577 133.993 56.3577 97.9932" stroke="black" stroke-width="8" stroke-linecap="round"/>
<path d="M116.358 141.993H165.358" stroke="black" stroke-width="8" stroke-linecap="round"/>
<path d="M93.3574 120.493H176.357" stroke="black" stroke-width="8" stroke-linecap="round"/>
<path d="M55.8577 112.493H14.3577" stroke="black" stroke-width="8" stroke-linecap="round"/>
<ellipse rx="2.13311" ry="3.64999" transform="matrix(0.605369 -0.795945 -0.795945 -0.605369 94.5539 81.4074)" fill="url(#paint2_linear_210_4)"/>
<circle r="7" transform="matrix(1 0 0 -1 57.3574 59.5)" fill="url(#paint3_linear_210_4)"/>
<defs>
<linearGradient id="paint0_linear_210_4" x1="72.9539" y1="93.5" x2="82.4539" y2="99" gradientUnits="userSpaceOnUse">
<stop stop-color="#05AD9E"/>
<stop offset="0.680208" stop-color="#F9A233"/>
<stop offset="0.9999" stop-color="#F9A233"/>
<stop offset="1" stop-color="#F9A233"/>
</linearGradient>
<linearGradient id="paint1_linear_210_4" x1="94.2924" y1="92" x2="94.2924" y2="182.5" gradientUnits="userSpaceOnUse">
<stop stop-opacity="0.750481"/>
<stop offset="0.310417" stop-color="#FDFDFD"/>
<stop offset="0.586458" stop-color="#F9F9F9" stop-opacity="0.984894"/>
<stop offset="1" stop-opacity="0"/>
</linearGradient>
<linearGradient id="paint2_linear_210_4" x1="2.13311" y1="0" x2="2.13311" y2="7.29998" gradientUnits="userSpaceOnUse">
<stop/>
</linearGradient>
<linearGradient id="paint3_linear_210_4" x1="7" y1="0" x2="7" y2="14" gradientUnits="userSpaceOnUse">
<stop/>
</linearGradient>
</defs>
</svg>
